<svg width="48" height="46" viewBox="0 0 48 46" fill="none" xmlns="http://www.w3.org/2000/svg">
<path d="M46.5938 24.4062C47.3704 24.4062 48 23.7766 48 23V12.5C48 11.7234 47.3704 11.0938 46.5938 11.0938C45.6135 11.0938 26.4628 11.0938 25.4062 11.0938V2C25.4062 1.22337 24.7766 0.59375 24 0.59375H9C8.22338 0.59375 7.59375 1.22337 7.59375 2V11.0938H1.40625C0.629625 11.0938 0 11.7234 0 12.5V23C0 23.7766 0.629625 24.4062 1.40625 24.4062H7.59375V32.0938H1.40625C0.629625 32.0938 0 32.7234 0 33.5V44C0 44.7766 0.629625 45.4062 1.40625 45.4062H46.5938C47.3704 45.4062 48 44.7766 48 44V33.5C48 32.7234 47.3704 32.0938 46.5938 32.0938H40.4062V24.4062H46.5938ZM45.1875 21.5938C43.683 21.5938 34.3936 21.5938 32.9062 21.5938V13.9062H45.1875V21.5938ZM30.0938 21.5938C28.6208 21.5938 19.3889 21.5938 17.9062 21.5938V13.9062H30.0938V21.5938ZM10.4062 3.40625H22.5938V11.0938C21.1208 11.0938 11.8889 11.0938 10.4062 11.0938V3.40625ZM2.8125 21.5938V13.9062H15.0938V21.5938C13.6058 21.5938 4.31672 21.5938 2.8125 21.5938ZM10.4062 24.4062H22.5938V32.0938C21.1208 32.0938 11.8889 32.0938 10.4062 32.0938V24.4062ZM2.8125 34.9062H15.0938V42.5938H2.8125V34.9062ZM17.9062 34.9062H30.0938V42.5938H17.9062V34.9062ZM45.1875 34.9062V42.5938H32.9062V34.9062H45.1875ZM37.5938 32.0938C36.1208 32.0938 26.8889 32.0938 25.4062 32.0938V24.4062H37.5938V32.0938Z" fill="#FF5A30"/>
</svg>
