<svg width="43" height="48" viewBox="0 0 43 48" fill="none" xmlns="http://www.w3.org/2000/svg">
<path d="M36.5625 4.21875C36.5625 1.89258 34.6699 0 32.3438 0H4.21875C1.89258 0 0 1.89258 0 4.21875V12.6562C0 14.9824 1.89258 16.875 4.21875 16.875H32.3438C34.6699 16.875 36.5625 14.9824 36.5625 12.6562V11.25H37.9688C38.744 11.25 39.375 11.881 39.375 12.6562V18.2812C39.375 19.0565 38.744 19.6875 37.9688 19.6875H21.0938C18.7676 19.6875 16.875 21.5801 16.875 23.9062V28.125H15.4688C14.692 28.125 14.0625 28.7545 14.0625 29.5312V35.0797L12.6562 40.7955C11.7418 44.4529 14.5052 48 18.2812 48C22.0591 48 24.8196 44.4492 23.9077 40.8007L22.5 35.0797V29.5312C22.5 28.7545 21.8705 28.125 21.0938 28.125H19.6875V23.9062C19.6875 23.131 20.3185 22.5 21.0938 22.5H37.9688C40.2949 22.5 42.1875 20.6074 42.1875 18.2812V12.6562C42.1875 10.3301 40.2949 8.4375 37.9688 8.4375H36.5625V4.21875ZM19.6875 30.9375V33.8438H16.875V30.9375H19.6875ZM18.2812 45.1875C16.344 45.1875 14.9117 43.3693 15.386 41.4727L16.571 36.6562H19.9915L21.1776 41.4778C21.6486 43.3612 20.2255 45.1875 18.2812 45.1875ZM4.21875 2.8125H32.3438C33.119 2.8125 33.75 3.44348 33.75 4.21875V5.625H29.5312C28.1646 5.625 26.417 6.13696 24.3933 6.72949C21.6599 7.53003 18.5621 8.4375 15.4688 8.4375C12.4534 8.4375 10.3275 7.55676 8.45178 6.78003C7.0177 6.18604 5.66345 5.625 4.21875 5.625H2.8125V4.21875C2.8125 3.44348 3.44348 2.8125 4.21875 2.8125ZM33.75 12.6562C33.75 13.4315 33.119 14.0625 32.3438 14.0625H4.21875C3.44348 14.0625 2.8125 13.4315 2.8125 12.6562V8.4375H4.21875C5.10388 8.4375 6.10657 8.85278 7.37549 9.3783C9.38855 10.2122 11.8938 11.25 15.4688 11.25C18.9657 11.25 22.4132 10.24 25.184 9.42883C26.9242 8.91907 28.5681 8.4375 29.5312 8.4375H33.75V12.6562Z" fill="#FF5A30"/>
</svg>
